<?xml version="1.0" encoding="iso-8859-1"?>
<!-- Generator: Adobe Illustrator 18.0.0, SVG Export Plug-In . SVG Version: 6.00 Build 0)  -->
<!DOCTYPE svg PUBLIC "-//W3C//DTD SVG 1.1//EN" "http://www.w3.org/Graphics/SVG/1.1/DTD/svg11.dtd">
<svg version="1.1" id="Capa_1" xmlns="http://www.w3.org/2000/svg" xmlns:xlink="http://www.w3.org/1999/xlink" x="0px" y="0px"
	 viewBox="0 0 62.671 63.093" style="enable-background:new 0 0 62.671 63.093;" xml:space="preserve">
<g>
	<path d="M2.578,5.203h57.515c1.453,0,2.578-1.125,2.578-2.578C62.671,1.266,61.546,0,60.093,0H2.578C1.125,0,0,1.266,0,2.625
		C0,4.078,1.125,5.203,2.578,5.203z"/>
	<path d="M2.578,16.828h35.906c1.453,0,2.578-1.125,2.578-2.578s-1.125-2.625-2.578-2.625H2.578C1.125,11.625,0,12.797,0,14.25
		S1.125,16.828,2.578,16.828z"/>
	<path d="M60.093,23.156H2.578C1.125,23.156,0,24.281,0,25.734s1.125,2.625,2.578,2.625h57.515c1.453,0,2.578-1.172,2.578-2.625
		S61.546,23.156,60.093,23.156z"/>
	<path d="M2.578,39.937h35.906c1.453,0,2.578-1.125,2.578-2.578s-1.125-2.578-2.578-2.578H2.578C1.125,34.781,0,35.906,0,37.359
		S1.125,39.937,2.578,39.937z"/>
	<path d="M60.093,46.312H2.578C1.125,46.312,0,47.437,0,48.89s1.125,2.578,2.578,2.578h57.515c1.453,0,2.578-1.125,2.578-2.578
		S61.546,46.312,60.093,46.312z"/>
	<path d="M38.484,57.89H2.578C1.125,57.89,0,59.062,0,60.515s1.125,2.578,2.578,2.578h35.906c1.453,0,2.578-1.125,2.578-2.578
		S39.937,57.89,38.484,57.89z"/>
</g>
<g>
</g>
<g>
</g>
<g>
</g>
<g>
</g>
<g>
</g>
<g>
</g>
<g>
</g>
<g>
</g>
<g>
</g>
<g>
</g>
<g>
</g>
<g>
</g>
<g>
</g>
<g>
</g>
<g>
</g>
</svg>
