<?xml version="1.0" encoding="iso-8859-1"?>
<!-- Generator: Adobe Illustrator 18.0.0, SVG Export Plug-In . SVG Version: 6.00 Build 0)  -->
<!DOCTYPE svg PUBLIC "-//W3C//DTD SVG 1.1//EN" "http://www.w3.org/Graphics/SVG/1.1/DTD/svg11.dtd">
<svg version="1.1" id="Capa_1" xmlns="http://www.w3.org/2000/svg" xmlns:xlink="http://www.w3.org/1999/xlink" x="0px" y="0px"
	 viewBox="0 96 612 600" style="enable-background:new 0 96 612 600;" xml:space="preserve">
<g>
	<path d="M600.394,252.7c-7.713-7.883-17.253-11.938-28.526-11.938H89.561c-10.947,0-20.232,3.977-28.193,11.938
		c-7.961,7.961-11.945,17.253-11.945,28.193v54.404h-31.18C7.961,335.297,0,343.259,0,353.541v1.323v1.996v79.604v1.33v1.988
		c0,10.282,7.961,18.243,18.243,18.243h31.179V511.1c0,10.947,3.984,20.239,11.945,28.2s17.246,11.938,28.193,11.938h482.308
		c11.273,0,20.975-3.899,28.526-11.613C608.108,531.749,612,522.047,612,511.1V280.893C612,269.953,607.938,260.414,600.394,252.7z
		 M575.181,511.1c0,2.321-0.991,3.319-3.312,3.319H89.561c-1.323,0-3.319-1.989-3.319-3.319V280.893
		c0-1.323,1.996-3.312,3.319-3.312h482.308c2.321,0,3.312,0.991,3.312,3.312V511.1z"/>
	<rect x="416.298" y="305.442" width="127.703" height="181.11"/>
	<rect x="265.37" y="305.442" width="123.726" height="181.11"/>
</g>
</svg>
