<?xml version="1.0" encoding="iso-8859-1"?>
<!-- Generator: Adobe Illustrator 18.0.0, SVG Export Plug-In . SVG Version: 6.00 Build 0)  -->
<!DOCTYPE svg PUBLIC "-//W3C//DTD SVG 1.1//EN" "http://www.w3.org/Graphics/SVG/1.1/DTD/svg11.dtd">
<svg version="1.1" id="Capa_1" xmlns="http://www.w3.org/2000/svg" xmlns:xlink="http://www.w3.org/1999/xlink" x="0px" y="0px"
	 viewBox="0 96 612 600" style="enable-background:new 0 96 612 600;" xml:space="preserve">
<path d="M600.387,252.7c-7.714-7.883-17.246-11.938-28.526-11.938h-482.3c-10.947,0-20.239,3.977-28.2,11.938
	c-7.961,7.961-11.938,17.253-11.938,28.193v54.404h-31.18C7.961,335.297,0,343.259,0,353.541v1.323v1.996v79.604v1.33v1.988
	c0,10.282,7.961,18.243,18.243,18.243h31.179V511.1c0,10.947,3.977,20.239,11.938,28.2s17.253,11.938,28.2,11.938h482.301
	c11.28,0,20.982-3.899,28.526-11.613C608.101,531.749,612,522.047,612,511.1V280.893C612,269.953,607.938,260.414,600.387,252.7z
	 M575.181,511.1c0,2.321-0.998,3.319-3.319,3.319H89.561c-1.33,0-3.319-1.989-3.319-3.319V280.893c0-1.323,1.989-3.312,3.319-3.312
	h482.301c2.321,0,3.319,0.991,3.319,3.312L575.181,511.1L575.181,511.1z"/>
</svg>
