<?xml version="1.0" encoding="iso-8859-1"?>
<!-- Generator: Adobe Illustrator 18.0.0, SVG Export Plug-In . SVG Version: 6.00 Build 0)  -->
<!DOCTYPE svg PUBLIC "-//W3C//DTD SVG 1.1//EN" "http://www.w3.org/Graphics/SVG/1.1/DTD/svg11.dtd">
<svg version="1.1" id="Capa_1" xmlns="http://www.w3.org/2000/svg" xmlns:xlink="http://www.w3.org/1999/xlink" x="0px" y="0px"
	 viewBox="0 0 95.811 71.249" style="enable-background:new 0 0 95.811 71.249;" xml:space="preserve">
<g>
	<path d="M94.17,1.687C93.08,0.574,91.733,0,90.139,0H5.671C4.078,0,2.73,0.574,1.64,1.687C0.574,2.777,0,4.125,0,5.672v59.905
		c0,1.547,0.55,2.918,1.64,4.031c1.067,1.09,2.438,1.641,4.031,1.641h84.468c1.594,0,2.965-0.551,4.031-1.641
		c1.09-1.113,1.641-2.484,1.641-4.031V5.672C95.811,4.125,95.237,2.777,94.17,1.687z M90.608,65.577
		c0,0.328-0.141,0.469-0.469,0.469H5.671c-0.234,0-0.515-0.281-0.515-0.469V28.921h85.452V65.577z M90.608,15.656H5.156V5.672
		c0-0.188,0.281-0.469,0.515-0.469h84.468c0.328,0,0.469,0.141,0.469,0.469V15.656z"/>
	<rect x="68.811" y="38.718" width="11.25" height="11.297"/>
	<path d="M18.328,43.874H58.64c1.453,0,2.578-1.125,2.578-2.578s-1.125-2.578-2.578-2.578H18.328c-1.454,0-2.579,1.125-2.579,2.578
		S16.874,43.874,18.328,43.874z"/>
	<path d="M18.328,55.499H50.39c1.453,0,2.578-1.125,2.578-2.578s-1.125-2.578-2.578-2.578H18.328c-1.454,0-2.579,1.125-2.579,2.578
		S16.874,55.499,18.328,55.499z"/>
</g>
<g>
</g>
<g>
</g>
<g>
</g>
<g>
</g>
<g>
</g>
<g>
</g>
<g>
</g>
<g>
</g>
<g>
</g>
<g>
</g>
<g>
</g>
<g>
</g>
<g>
</g>
<g>
</g>
<g>
</g>
</svg>
