<?xml version="1.0" encoding="iso-8859-1"?>
<!-- Generator: Adobe Illustrator 18.0.0, SVG Export Plug-In . SVG Version: 6.00 Build 0)  -->
<!DOCTYPE svg PUBLIC "-//W3C//DTD SVG 1.1//EN" "http://www.w3.org/Graphics/SVG/1.1/DTD/svg11.dtd">
<svg version="1.1" id="Capa_1" xmlns="http://www.w3.org/2000/svg" xmlns:xlink="http://www.w3.org/1999/xlink" x="0px" y="0px"
	 viewBox="0 0 63.562 95.764" style="enable-background:new 0 0 63.562 95.764;" xml:space="preserve">
<path d="M63.468,33.562L30.047,0.094L29.953,0h-5.062H5.672C4.078,0,2.719,0.562,1.641,1.641C0.563,2.719,0,4.078,0,5.625v84.514
	c0,3.188,2.485,5.625,5.672,5.625H57.89c1.547,0,2.895-0.574,3.984-1.64c1.114-1.09,1.688-2.391,1.688-3.985V38.765v-5.203H63.468z
	 M30.047,7.453l26.109,26.109H30.515c-0.328,0-0.468-0.141-0.468-0.469V7.453z M58.359,90.139c0,0.329-0.141,0.469-0.469,0.469
	H5.672c-0.328,0-0.469-0.14-0.469-0.469V5.625c0-0.328,0.141-0.469,0.469-0.469h19.219v27.937c0,1.547,0.503,2.918,1.593,4.031
	c1.067,1.09,2.438,1.641,4.031,1.641h27.844V90.139z"/>
<g>
</g>
<g>
</g>
<g>
</g>
<g>
</g>
<g>
</g>
<g>
</g>
<g>
</g>
<g>
</g>
<g>
</g>
<g>
</g>
<g>
</g>
<g>
</g>
<g>
</g>
<g>
</g>
<g>
</g>
</svg>
