<?xml version="1.0" encoding="iso-8859-1"?>
<!-- Generator: Adobe Illustrator 18.0.0, SVG Export Plug-In . SVG Version: 6.00 Build 0)  -->
<!DOCTYPE svg PUBLIC "-//W3C//DTD SVG 1.1//EN" "http://www.w3.org/Graphics/SVG/1.1/DTD/svg11.dtd">
<svg version="1.1" id="Capa_1" xmlns="http://www.w3.org/2000/svg" xmlns:xlink="http://www.w3.org/1999/xlink" x="0px" y="0px"
	 viewBox="0 0 72.796 95.764" style="enable-background:new 0 0 72.796 95.764;" xml:space="preserve">
<g>
	<polygon points="63.843,81.093 63.843,72.187 58.171,72.187 58.171,81.093 49.171,81.093 49.171,86.858 58.171,86.858 
		58.171,95.764 63.843,95.764 63.843,86.858 72.796,86.858 72.796,81.093 	"/>
	<path d="M5.203,90.139V5.625c0-0.328,0.14-0.469,0.469-0.469H24.89V33c0,3.188,2.438,5.766,5.625,5.766h27.843v28.406h5.203V38.765
		v-5.203h-0.093L30.046,0.094L29.952,0H24.89H5.672C4.078,0,2.718,0.562,1.64,1.641C0.562,2.719,0,4.078,0,5.625v84.514
		c0,3.188,2.484,5.625,5.672,5.625h43.499v-5.156H5.672C5.343,90.608,5.203,90.468,5.203,90.139z M30.046,7.453l26.109,26.109
		h-25.64c-0.328,0-0.469-0.188-0.469-0.562V7.453z"/>
</g>
<g>
</g>
<g>
</g>
<g>
</g>
<g>
</g>
<g>
</g>
<g>
</g>
<g>
</g>
<g>
</g>
<g>
</g>
<g>
</g>
<g>
</g>
<g>
</g>
<g>
</g>
<g>
</g>
<g>
</g>
</svg>
