<?xml version="1.0" encoding="iso-8859-1"?>
<!-- Generator: Adobe Illustrator 18.0.0, SVG Export Plug-In . SVG Version: 6.00 Build 0)  -->
<!DOCTYPE svg PUBLIC "-//W3C//DTD SVG 1.1//EN" "http://www.w3.org/Graphics/SVG/1.1/DTD/svg11.dtd">
<svg version="1.1" id="Capa_1" xmlns="http://www.w3.org/2000/svg" xmlns:xlink="http://www.w3.org/1999/xlink" x="0px" y="0px"
	 viewBox="0 0 61.03 95.11" style="enable-background:new 0 0 61.03 95.11;" xml:space="preserve">
<g>
	<path d="M32.718,1.26C32.221,0.41,31.452,0,30.515,0c-1.031,0-1.73,0.45-2.203,1.26C9.471,33.78,0,54.84,0,64.59
		c0,5.53,1.342,10.65,4.078,15.33c2.748,4.7,6.469,8.39,11.156,11.11c4.687,2.72,9.797,4.08,15.281,4.08s10.594-1.36,15.281-4.08
		c4.688-2.72,8.373-6.43,11.109-11.11c2.748-4.7,4.125-9.8,4.125-15.33C61.03,54.84,51.627,33.74,32.718,1.26z M52.452,77.34
		c-2.297,3.89-5.4,6.92-9.281,9.19c-3.901,2.28-8.109,3.42-12.656,3.42c-4.594,0-8.849-1.14-12.75-3.42
		c-3.88-2.27-6.955-5.29-9.234-9.19c-2.268-3.88-3.375-8.15-3.375-12.75c0-2.58,0.877-6.28,2.625-11.15
		c1.768-4.93,4.065-10.23,6.844-15.89c5.612-11.45,10.828-21.1,15.89-29.77c5.062,8.67,10.24,18.34,15.844,29.77
		c2.787,5.68,5.081,10.97,6.843,15.89c1.753,4.88,2.672,8.57,2.672,11.15C55.874,69.19,54.749,73.45,52.452,77.34z"/>
	<path d="M40.218,46.83c-1.067,0.9-1.233,2.59-0.281,3.65c0.221,0.25,0.973,1.13,2.343,3.38c0.692,1.13,1.247,2.35,1.735,3.65
		c0.965,2.59,1.889,6.13,1.265,9.38c-0.923,4.81-4.251,9.02-10.265,12.51c-1.252,0.73-1.682,2.16-0.938,3.43
		c0.521,0.88,1.219,1.36,2.204,1.36c0.421,0,0.843-0.1,1.312-0.29c7.453-4.26,11.7-9.61,12.797-16.12
		c1.809-10.74-6.194-20.29-6.516-20.67C42.93,45.99,41.308,45.9,40.218,46.83z"/>
</g>
<g>
</g>
<g>
</g>
<g>
</g>
<g>
</g>
<g>
</g>
<g>
</g>
<g>
</g>
<g>
</g>
<g>
</g>
<g>
</g>
<g>
</g>
<g>
</g>
<g>
</g>
<g>
</g>
<g>
</g>
</svg>
