<?xml version="1.0" encoding="iso-8859-1"?>
<!-- Generator: Adobe Illustrator 18.0.0, SVG Export Plug-In . SVG Version: 6.00 Build 0)  -->
<!DOCTYPE svg PUBLIC "-//W3C//DTD SVG 1.1//EN" "http://www.w3.org/Graphics/SVG/1.1/DTD/svg11.dtd">
<svg version="1.1" id="Capa_1" xmlns="http://www.w3.org/2000/svg" xmlns:xlink="http://www.w3.org/1999/xlink" x="0px" y="0px"
	 viewBox="0 0 95.894 71.34" style="enable-background:new 0 0 95.894 71.34;" xml:space="preserve">
<g>
	<path d="M95.155,49.17L77.296,31.31c-0.797-0.8-1.735-0.99-2.813-0.56c-1.078,0.42-1.594,1.22-1.594,2.39v9.09
		c-6.421,1.13-12.688,3.54-17.062,6.09c-4.298,2.51-8.437,5.82-10.875,8.3c-2.437,2.49-4.539,5.3-5.297,6.47
		c-0.367,0.57-0.621,0.98-0.75,1.22c-0.621,1.16-0.505,2.29,0.469,3.19c0.856,0.79,2.203,0.89,3.141,0.28
		c0.187-0.19,1.825-1.18,5.531-2.81c1.825-0.81,3.851-1.58,6.047-2.3c2.21-0.73,4.878-1.39,7.922-1.92
		c3.097-0.55,6.14-0.85,9.14-0.85h1.734v8.86c0,1.08,0.516,1.88,1.594,2.39c0.375,0.14,0.703,0.19,0.984,0.19
		c0.704,0,1.312-0.24,1.829-0.75l17.859-17.77C96.142,51.84,96.139,50.15,95.155,49.17z M78.046,62.53v-5.02
		c0-1.36-1.032-2.53-2.391-2.58c-0.984-0.14-2.484-0.18-4.5-0.18c-6.703,0-13.453,1.12-20.156,3.42
		c7.266-6.14,15.518-9.83,24.843-11.11c1.268-0.17,2.204-1.22,2.204-2.58v-5.11L89.577,51L78.046,62.53z"/>
	<path d="M5.203,65.67V13.64L41.39,50.62c0.51,0.52,1.125,0.75,1.828,0.75h0.094c0.796,0,1.412-0.23,1.921-0.75l36.094-36.98v13.73
		h5.156V5.76c0-3.18-2.438-5.76-5.625-5.76H5.671C4.078,0,2.718,0.56,1.64,1.68C0.562,2.81,0,4.17,0,5.76v59.91
		c0,1.55,0.55,2.92,1.64,4.03c1.067,1.09,2.438,1.64,4.031,1.64h27.563v-5.2H5.671C5.343,66.14,5.203,66,5.203,65.67z M5.203,5.76
		c0-0.37,0.14-0.56,0.468-0.56h75.187c0.328,0,0.469,0.19,0.469,0.56v0.47L43.312,45.14L5.203,6.23V5.76z"/>
</g>
<g>
</g>
<g>
</g>
<g>
</g>
<g>
</g>
<g>
</g>
<g>
</g>
<g>
</g>
<g>
</g>
<g>
</g>
<g>
</g>
<g>
</g>
<g>
</g>
<g>
</g>
<g>
</g>
<g>
</g>
</svg>
