<?xml version="1.0" encoding="iso-8859-1"?>
<!-- Generator: Adobe Illustrator 18.0.0, SVG Export Plug-In . SVG Version: 6.00 Build 0)  -->
<!DOCTYPE svg PUBLIC "-//W3C//DTD SVG 1.1//EN" "http://www.w3.org/Graphics/SVG/1.1/DTD/svg11.dtd">
<svg version="1.1" id="Capa_1" xmlns="http://www.w3.org/2000/svg" xmlns:xlink="http://www.w3.org/1999/xlink" x="0px" y="0px"
	 viewBox="0 0 95.894 64.992" style="enable-background:new 0 0 95.894 64.992;" xml:space="preserve">
<g>
	<path d="M95.155,18.633L77.296,0.774c-0.751-0.751-1.643-0.992-2.765-0.562C73.45,0.626,72.89,1.43,72.89,2.602v9.094
		c-6.515,1.172-12.559,3.381-18.047,6.703c-6.746,4.084-12.124,9.139-15.937,15.375c-0.689,1.127-0.505,2.288,0.469,3.187
		c0.855,0.79,2.25,0.891,3.187,0.281c0.047-0.047,0.047-0.047,0.094-0.047c0.656-0.421,1.307-0.806,1.922-1.125
		c0.651-0.337,2.016-0.984,4.125-1.874c2.109-0.891,4.125-1.688,6.14-2.297c2.016-0.61,4.547-1.223,7.5-1.735
		c3-0.519,5.953-0.797,8.813-0.797h1.734v8.86c0,1.172,0.561,1.972,1.641,2.39c0.373,0.145,0.703,0.188,0.937,0.188
		c0.703,0,1.311-0.236,1.828-0.75l17.859-17.766C96.142,21.308,96.14,19.618,95.155,18.633z M78.046,31.946v-4.969
		c0-1.359-0.984-2.531-2.297-2.578c-1.031-0.141-2.578-0.188-4.593-0.188c-6.703,0-13.453,1.125-20.156,3.422
		c7.125-6.047,15.422-9.746,24.843-11.109c1.266-0.183,2.203-1.266,2.203-2.625V8.836l11.625,11.625L78.046,31.946z"/>
	<path d="M68.671,59.32c0,0.188-0.281,0.469-0.515,0.469H5.672c-0.328,0-0.469-0.141-0.469-0.469V13.805
		c0-0.328,0.141-0.469,0.469-0.469h51.656v-5.25H5.672c-2.953,0-5.344,2.297-5.672,5.157v0.562V59.32v0.563
		c0.328,2.859,2.719,5.109,5.672,5.109h62.484c1.593,0,2.964-0.551,4.031-1.641c1.09-1.113,1.641-2.484,1.641-4.031V43.852h-5.157
		V59.32z"/>
</g>
<g>
</g>
<g>
</g>
<g>
</g>
<g>
</g>
<g>
</g>
<g>
</g>
<g>
</g>
<g>
</g>
<g>
</g>
<g>
</g>
<g>
</g>
<g>
</g>
<g>
</g>
<g>
</g>
<g>
</g>
</svg>
