<?xml version="1.0" encoding="iso-8859-1"?>
<!-- Generator: Adobe Illustrator 18.0.0, SVG Export Plug-In . SVG Version: 6.00 Build 0)  -->
<!DOCTYPE svg PUBLIC "-//W3C//DTD SVG 1.1//EN" "http://www.w3.org/Graphics/SVG/1.1/DTD/svg11.dtd">
<svg version="1.1" id="Capa_1" xmlns="http://www.w3.org/2000/svg" xmlns:xlink="http://www.w3.org/1999/xlink" x="0px" y="0px"
	 viewBox="0 0 85.733 85.687" style="enable-background:new 0 0 85.733 85.687;" xml:space="preserve">
<g>
	<path d="M82.217,25.922c-2.305-5.246-5.343-9.75-9.14-13.547s-8.356-6.768-13.641-9C54.174,1.153,48.702,0,42.936,0h-0.515
		c-5.813,0-11.344,1.219-16.594,3.516s-9.785,5.402-13.593,9.281c-3.785,3.855-6.742,8.441-8.953,13.734
		C1.086,31.785,0,37.265,0,43.031v0.234c0,5.766,1.163,11.301,3.468,16.547c2.288,5.207,5.379,9.715,9.188,13.5
		c3.832,3.808,8.395,6.785,13.64,9c5.302,2.238,10.781,3.375,16.547,3.375h0.468c5.813,0,11.344-1.219,16.641-3.516
		s9.785-5.402,13.593-9.281c3.786-3.855,6.774-8.428,8.953-13.734c2.133-5.194,3.235-10.594,3.235-16.266v-0.468
		C85.733,36.656,84.505,31.128,82.217,25.922z M78.842,54.14l-4.734-1.547c-0.328-0.14-0.656-0.187-0.984-0.187
		c-0.797,0-1.454,0.375-1.969,1.125l-8.859,12.89c-0.704,0.797-0.704,2.063,0,2.86l2.718,4.031
		c-6.421,4.734-13.593,7.125-21.609,7.218v-5.484c-0.14-1.359-0.766-2.143-1.922-2.484l-14.906-4.406
		c-0.327-0.097-0.609-0.141-0.89-0.141c-0.797,0-1.38,0.348-1.875,0.984l-3.281,4.219c-1.922-1.547-3.32-2.774-4.219-3.656
		c-4.117-4.04-7.125-8.813-9-14.297l4.687-1.922c1.057-0.433,1.641-1.172,1.641-2.39V35.39v-0.093c0-1.078-0.772-2.07-1.828-2.391
		l-4.781-1.453c2.343-7.594,6.703-13.781,13.125-18.609l3.468,4.218c0.554,0.674,1.125,1.032,1.922,1.032
		c0.281,0,0.561-0.051,0.844-0.141l14.906-4.734c1.229-0.391,1.848-1.266,1.828-2.485L43.03,5.156
		c7.734,0,14.906,2.297,21.469,6.844l-3.235,4.969c-0.312,0.479-0.468,0.937-0.468,1.406c0,0.516,0.19,0.982,0.562,1.5l9.094,12.656
		c0.531,0.739,1.125,1.125,1.922,1.125c0.328,0,0.647-0.069,0.984-0.187l5.484-1.922c1.125,3.421,1.688,7.078,1.688,10.968
		C80.53,46.687,79.967,50.531,78.842,54.14z"/>
	<path d="M49.077,28.875c-0.528-0.694-1.172-1.031-1.922-1.031c-0.328,0-0.656,0.046-0.984,0.187l-14.578,4.781
		c-1.184,0.388-1.75,1.219-1.734,2.485l0.187,15.374c0.014,1.125,0.656,2.157,1.734,2.391l14.391,4.594
		c0.328,0.14,0.656,0.187,0.984,0.187c0.75,0,1.404-0.33,1.922-1.031l9.281-12.562c0.328-0.563,0.516-1.125,0.516-1.641
		c0-0.469-0.188-0.984-0.516-1.547L49.077,28.875z"/>
</g>
<g>
</g>
<g>
</g>
<g>
</g>
<g>
</g>
<g>
</g>
<g>
</g>
<g>
</g>
<g>
</g>
<g>
</g>
<g>
</g>
<g>
</g>
<g>
</g>
<g>
</g>
<g>
</g>
<g>
</g>
</svg>
