<?xml version="1.0" encoding="iso-8859-1"?>
<!-- Generator: Adobe Illustrator 18.0.0, SVG Export Plug-In . SVG Version: 6.00 Build 0)  -->
<!DOCTYPE svg PUBLIC "-//W3C//DTD SVG 1.1//EN" "http://www.w3.org/Graphics/SVG/1.1/DTD/svg11.dtd">
<svg version="1.1" id="Capa_1" xmlns="http://www.w3.org/2000/svg" xmlns:xlink="http://www.w3.org/1999/xlink" x="0px" y="0px"
	 viewBox="0 0 88.124 81.983" style="enable-background:new 0 0 88.124 81.983;" xml:space="preserve">
<path d="M80.999,7.078C76.64,2.765,70.358,0,63.749,0c-3.891,0-7.547,0.89-11.062,2.672c-3.516,1.781-6.375,4.218-8.625,7.312
	c-2.25-3.094-5.109-5.531-8.625-7.312C31.921,0.89,28.265,0,24.375,0c-6.609,0-12.89,2.765-17.25,7.078
	C2.766,11.39,0,17.671,0,24.281c0,4.546,0.966,8.959,2.156,12.281c0.591,1.647,1.484,3.432,2.672,5.25
	c1.202,1.839,2.297,3.375,3.234,4.593c0.938,1.219,2.274,2.743,4.078,4.5c1.805,1.759,3.281,3.141,4.359,4.125
	c1.078,0.985,2.718,2.439,4.875,4.313c2.483,2.157,4.254,3.763,5.391,4.781c1.113,0.997,2.719,2.531,4.828,4.547
	c4.266,4.077,7.396,7.834,10.359,12.14c0.553,0.804,1.266,1.172,2.109,1.172c0.891,0,1.662-0.36,2.203-1.172
	c1.897-2.845,4.09-5.755,6.656-8.625c2.59-2.896,4.746-5.143,6.469-6.75c1.746-1.628,4.256-3.9,7.5-6.796
	c2.006-1.792,3.609-3.141,4.688-4.125c1.078-0.985,2.484-2.344,4.219-4.078c1.734-1.735,3.105-3.226,4.078-4.454
	c0.996-1.256,2.048-2.775,3.234-4.593c2.423-3.713,3.484-6.653,4.359-10.781c0.436-2.06,0.656-4.172,0.656-6.328
	C88.124,17.671,85.358,11.39,80.999,7.078z M82.499,29.062c-0.903,5.201-3.62,10.302-8.156,15.328
	c-1.98,2.193-5.614,5.684-10.922,10.406c-2.754,2.45-4.968,4.454-6.703,6.047c-1.687,1.548-3.762,3.644-6.234,6.281
	c-2.45,2.613-4.594,5.203-6.422,7.734c-1.922-2.484-4.137-5.004-6.656-7.594c-2.543-2.613-4.5-4.593-5.953-5.906
	c-1.453-1.312-3.667-3.269-6.703-5.953l-3.234-2.859l-2.953-2.672c-1.279-1.157-2.263-2.098-2.906-2.812
	c-0.622-0.692-1.453-1.594-2.484-2.719c-1.031-1.125-1.824-2.112-2.344-2.906c-1.074-1.643-2.9-4.095-3.562-6.141l-1.078-3.328
	c-0.786-2.426-1.031-4.922-1.031-7.687c0-5.25,1.875-9.75,5.625-13.453c3.797-3.75,8.297-5.625,13.593-5.625
	c3.703,0,7.125,0.984,10.266,3c3.141,2.015,5.562,4.672,7.125,8.015c0.453,0.97,1.219,1.453,2.297,1.453
	c1.078,0,1.911-0.45,2.391-1.453c1.583-3.311,3.844-6,6.984-8.015c3.14-2.016,6.609-3,10.312-3c5.297,0,9.797,1.875,13.547,5.578
	c3.75,3.703,5.625,8.203,5.625,13.5C82.921,25.921,82.768,27.513,82.499,29.062z"/>
<g>
</g>
<g>
</g>
<g>
</g>
<g>
</g>
<g>
</g>
<g>
</g>
<g>
</g>
<g>
</g>
<g>
</g>
<g>
</g>
<g>
</g>
<g>
</g>
<g>
</g>
<g>
</g>
<g>
</g>
</svg>
