<?xml version="1.0" encoding="iso-8859-1"?>
<!-- Generator: Adobe Illustrator 18.0.0, SVG Export Plug-In . SVG Version: 6.00 Build 0)  -->
<!DOCTYPE svg PUBLIC "-//W3C//DTD SVG 1.1//EN" "http://www.w3.org/Graphics/SVG/1.1/DTD/svg11.dtd">
<svg version="1.1" id="Capa_1" xmlns="http://www.w3.org/2000/svg" xmlns:xlink="http://www.w3.org/1999/xlink" x="0px" y="0px"
	 viewBox="0 0 95.905 95.624" style="enable-background:new 0 0 95.905 95.624;" xml:space="preserve">
<g>
	<path d="M94.218,37.547c-1.102-1.102-2.438-1.688-3.985-1.688H76.03c2.86-5.062,3.394-9.361,1.735-12.984
		c-2.42-5.283-9.187-8.158-20.344-8.531c-7.078-0.236-12.481-1.19-15.328-2.484c-2.825-1.285-4.121-2.393-4.734-3.563
		c-0.934-1.783-0.281-3.328-0.047-4.031l0.141-0.281c0.658-1.316,0.377-2.863-0.797-3.563c-1.264-0.753-2.83-0.497-3.609,0.75
		c-0.862,1.379-1.516,3.048-1.454,5.719c0.032,1.36,0.408,2.633,1.032,3.797c2.892,5.398,11.109,8.329,24.609,8.812
		c8.766,0.314,14.374,2.258,15.843,5.485c1.625,3.569-1.547,8.625-2.906,10.359c-0.141,0.14-0.281,0.328-0.375,0.515H5.672
		C2.484,35.859,0,38.391,0,41.578v48.421c0,3.188,2.484,5.625,5.672,5.625h84.561c1.547,0,2.895-0.574,3.985-1.64
		c1.113-1.09,1.687-2.391,1.687-3.985V41.578C95.905,39.984,95.319,38.649,94.218,37.547z M90.702,89.999
		c0,0.329-0.141,0.469-0.469,0.469H5.672c-0.328,0-0.469-0.14-0.469-0.469V41.578c0-0.375,0.141-0.562,0.469-0.562h84.561
		c0.188,0,0.469,0.328,0.469,0.562V89.999z"/>
	<path d="M75.187,51h-2.532c-1.078,0-2.015,0.937-2.015,2.016V55.5c0,1.078,0.937,2.015,2.015,2.015h2.532
		c1.078,0,2.015-0.937,2.015-2.015v-2.484C77.202,51.937,76.265,51,75.187,51z"/>
	<path d="M75.187,63.89h-2.532c-1.078,0-2.015,0.938-2.015,2.016v2.484c0,1.078,0.937,2.016,2.015,2.016h2.532
		c1.078,0,2.015-0.938,2.015-2.016v-2.484C77.202,64.828,76.265,63.89,75.187,63.89z"/>
	<path d="M66.327,63.984h2.391c1.172,0,2.109-0.937,2.109-2.015v-2.532c0-1.078-0.937-2.015-2.109-2.015h-2.391
		c-1.125,0-2.015,0.89-2.015,2.015v2.532C64.312,63.094,65.202,63.984,66.327,63.984z"/>
	<path d="M59.718,57.515h2.391c1.125,0,2.015-0.89,2.015-2.015v-2.484c0-1.125-0.89-2.016-2.015-2.016h-2.391
		c-1.125,0-2.015,0.891-2.015,2.016V55.5C57.703,56.625,58.593,57.515,59.718,57.515z"/>
	<path d="M62.109,63.89h-2.391c-1.125,0-2.015,0.891-2.015,2.016v2.484c0,1.125,0.89,2.016,2.015,2.016h2.391
		c1.125,0,2.015-0.891,2.015-2.016v-2.484C64.124,64.781,63.234,63.89,62.109,63.89z"/>
	<path d="M53.296,63.984h2.485c1.078,0,2.015-0.937,2.015-2.015v-2.532c0-1.078-0.937-2.015-2.015-2.015h-2.485
		c-1.078,0-2.015,0.937-2.015,2.015v2.532C51.281,63.047,52.218,63.984,53.296,63.984z"/>
	<path d="M46.734,57.515h2.437c1.125,0,2.016-0.89,2.016-2.015v-2.484c0-1.125-0.891-2.016-2.016-2.016h-2.437
		c-1.125,0-2.016,0.891-2.016,2.016V55.5C44.718,56.625,45.609,57.515,46.734,57.515z"/>
	<path d="M49.171,63.89h-2.437c-1.125,0-2.016,0.891-2.016,2.016v2.484c0,1.125,0.891,2.016,2.016,2.016h2.437
		c1.125,0,2.016-0.891,2.016-2.016v-2.484C51.187,64.781,50.296,63.89,49.171,63.89z"/>
	<path d="M38.203,61.969c0,1.078,0.937,2.015,2.015,2.015h2.485c1.125,0,2.015-0.89,2.015-2.015v-2.532
		c0-1.125-0.89-2.015-2.015-2.015h-2.485c-1.078,0-2.015,0.937-2.015,2.015V61.969z"/>
	<path d="M33.703,57.515h2.484c1.078,0,2.016-0.937,2.016-2.015v-2.484c0-1.079-0.938-2.016-2.016-2.016h-2.484
		c-1.078,0-2.016,0.937-2.016,2.016V55.5C31.687,56.578,32.625,57.515,33.703,57.515z"/>
	<path d="M36.187,63.89h-2.484c-1.078,0-2.016,0.938-2.016,2.016v2.484c0,1.078,0.938,2.016,2.016,2.016h2.484
		c1.078,0,2.016-0.938,2.016-2.016v-2.484C38.203,64.828,37.265,63.89,36.187,63.89z"/>
	<path d="M27.281,63.984h2.391c1.125,0,2.015-0.89,2.015-2.015v-2.532c0-1.125-0.89-2.015-2.015-2.015h-2.391
		c-1.125,0-2.016,0.89-2.016,2.015v2.532C25.265,63.094,26.156,63.984,27.281,63.984z"/>
	<path d="M70.359,79.125H25.547c-1.453,0-2.578,1.171-2.578,2.625c0,1.453,1.125,2.578,2.578,2.578h44.812
		c1.453,0,2.625-1.125,2.625-2.578C72.984,80.296,71.812,79.125,70.359,79.125z"/>
	<path d="M20.719,57.515h2.437c1.125,0,2.016-0.89,2.016-2.015v-2.484c0-1.125-0.891-2.016-2.016-2.016h-2.437
		c-1.125,0-2.016,0.891-2.016,2.016V55.5C18.703,56.625,19.594,57.515,20.719,57.515z"/>
	<path d="M25.172,68.39v-2.484c0-1.125-0.891-2.016-2.016-2.016h-2.437c-1.125,0-2.016,0.891-2.016,2.016v2.484
		c0,1.125,0.891,2.016,2.016,2.016h2.437C24.281,70.406,25.172,69.515,25.172,68.39z"/>
</g>
<g>
</g>
<g>
</g>
<g>
</g>
<g>
</g>
<g>
</g>
<g>
</g>
<g>
</g>
<g>
</g>
<g>
</g>
<g>
</g>
<g>
</g>
<g>
</g>
<g>
</g>
<g>
</g>
<g>
</g>
</svg>
