<?xml version="1.0" encoding="iso-8859-1"?>
<!-- Generator: Adobe Illustrator 18.0.0, SVG Export Plug-In . SVG Version: 6.00 Build 0)  -->
<!DOCTYPE svg PUBLIC "-//W3C//DTD SVG 1.1//EN" "http://www.w3.org/Graphics/SVG/1.1/DTD/svg11.dtd">
<svg version="1.1" id="Capa_1" xmlns="http://www.w3.org/2000/svg" xmlns:xlink="http://www.w3.org/1999/xlink" x="0px" y="0px"
	 viewBox="0 0 85.733 85.687" style="enable-background:new 0 0 85.733 85.687;" xml:space="preserve">
<g>
	<path d="M82.311,26.156C77.791,15.619,70.115,7.943,59.577,3.422C54.271,1.146,48.749,0,42.937,0
		C37.124,0,31.56,1.157,26.249,3.422C15.623,7.954,7.903,15.601,3.375,26.156C1.106,31.445,0,36.984,0,42.797
		c0,5.812,1.106,11.398,3.375,16.687c4.528,10.555,12.248,18.249,22.874,22.781c5.311,2.265,10.875,3.422,16.688,3.422
		c5.812,0,11.334-1.146,16.64-3.422c10.538-4.521,18.214-12.244,22.734-22.781c2.276-5.306,3.422-10.875,3.422-16.687
		C85.733,36.984,84.587,31.462,82.311,26.156z M77.53,57.468c-1.989,4.632-4.641,8.672-8.015,12.047c-3.329,3.328-7.36,6-12,8.015
		c-4.641,2.016-9.469,3-14.578,3c-6.797,0-13.131-1.677-18.938-5.062c-5.771-3.365-10.369-7.963-13.734-13.734
		C6.88,55.927,5.203,49.593,5.203,42.797c0-6.797,1.687-13.078,5.062-18.844s7.963-10.369,13.734-13.734
		c5.807-3.385,12.141-5.063,18.938-5.063s13.078,1.688,18.843,5.063c5.766,3.375,10.342,7.979,13.688,13.734
		C78.825,29.729,80.53,36,80.53,42.797C80.53,47.906,79.526,52.819,77.53,57.468z"/>
	<path d="M30.703,43.078l20.952-21.516c0.925-0.949,0.985-2.531-0.093-3.609c-0.938-0.937-2.592-0.997-3.657,0.094L25.171,41.343
		c-0.926,0.949-0.984,2.579,0.094,3.657l22.64,22.64c0.516,0.516,1.125,0.797,1.829,0.797c0.749,0,1.406-0.281,1.921-0.797
		c0.938-0.938,1.011-2.599,0-3.609L30.703,43.078z"/>
</g>
<g>
</g>
<g>
</g>
<g>
</g>
<g>
</g>
<g>
</g>
<g>
</g>
<g>
</g>
<g>
</g>
<g>
</g>
<g>
</g>
<g>
</g>
<g>
</g>
<g>
</g>
<g>
</g>
<g>
</g>
</svg>
