<?xml version="1.0" encoding="iso-8859-1"?>
<!-- Generator: Adobe Illustrator 18.0.0, SVG Export Plug-In . SVG Version: 6.00 Build 0)  -->
<!DOCTYPE svg PUBLIC "-//W3C//DTD SVG 1.1//EN" "http://www.w3.org/Graphics/SVG/1.1/DTD/svg11.dtd">
<svg version="1.1" id="Capa_1" xmlns="http://www.w3.org/2000/svg" xmlns:xlink="http://www.w3.org/1999/xlink" x="0px" y="0px"
	 viewBox="0 0 74.235 82.385" style="enable-background:new 0 0 74.235 82.385;" xml:space="preserve">
<path d="M72.88,30.305c-1.366-5.06-3.657-9.79-6.985-14.25c-3.328-4.45-7.35-8.12-12.187-10.87c-4.725-2.69-9.79-4.46-15.187-5.16
	c-1.12-0.14-1.996,0.31-2.578,1.31c-0.591,1.02-0.508,2.01,0.187,2.91c4.462,5.76,6.889,12.23,7.359,19.5
	c0.468,7.22-1.167,13.94-4.781,20.25c-3.183,5.55-7.49,9.95-13.078,13.17c-5.568,3.21-11.578,4.78-18,4.78
	c-2.062,0-3.609-0.09-4.64-0.28c-1.172-0.09-2.037,0.34-2.578,1.31c-0.584,1.05-0.568,2.02,0.187,3c3.51,4.56,7.553,8.1,12,10.64
	c6.709,3.84,13.547,5.77,20.531,5.77c7.266,0,14.056-1.89,20.437-5.62c6.416-3.77,11.501-8.81,15.188-15.19
	c2.782-4.82,4.5-9.99,5.156-15.47C74.567,40.615,74.232,35.325,72.88,30.305z M64.255,58.665c-3.227,5.58-7.641,9.99-13.219,13.22
	s-11.531,4.83-17.906,4.83s-12.376-1.64-17.953-4.88c-2.579-1.49-4.687-3.09-6.422-4.73c7.125-0.19,13.735-2.11,19.875-5.77
	c6.141-3.65,10.998-8.58,14.578-14.76c3.592-6.2,5.461-12.89,5.531-20.06c0.071-7.18-1.547-13.88-4.921-20.07
	c2.671,0.89,5.095,2.04,7.265,3.28c10.205,5.84,16.463,16.37,17.719,27.14C69.654,44.195,68.153,51.925,64.255,58.665z"/>
<g>
</g>
<g>
</g>
<g>
</g>
<g>
</g>
<g>
</g>
<g>
</g>
<g>
</g>
<g>
</g>
<g>
</g>
<g>
</g>
<g>
</g>
<g>
</g>
<g>
</g>
<g>
</g>
<g>
</g>
</svg>
