<?xml version="1.0" encoding="iso-8859-1"?>
<!-- Generator: Adobe Illustrator 18.0.0, SVG Export Plug-In . SVG Version: 6.00 Build 0)  -->
<!DOCTYPE svg PUBLIC "-//W3C//DTD SVG 1.1//EN" "http://www.w3.org/Graphics/SVG/1.1/DTD/svg11.dtd">
<svg version="1.1" id="Capa_1" xmlns="http://www.w3.org/2000/svg" xmlns:xlink="http://www.w3.org/1999/xlink" x="0px" y="0px"
	 viewBox="0 0 95.999 74.39" style="enable-background:new 0 0 95.999 74.39;" xml:space="preserve">
<g>
	<path d="M92.015,31.781H77.578V19.594c0-5.672-2.766-10.359-8.344-14.062C63.656,1.828,56.625,0,48.047,0
		C39.422,0,32.29,1.818,26.672,5.532c-5.585,3.692-8.391,8.39-8.391,14.062v2.953c0,1.453,1.875,2.578,3.985,2.578
		c2.25,0,4.078-1.125,4.078-2.578v-2.953c0-4.219,2.026-7.671,6.047-10.359c4.042-2.703,9.234-4.078,15.656-4.078
		c6.281,0,11.419,1.386,15.421,4.078c4.013,2.698,6.047,6.14,6.047,10.359v12.187H3.985C1.782,31.781,0,32.906,0,34.359V71.81
		c0,1.46,1.782,2.58,3.985,2.58h88.03c2.109,0,3.984-1.12,3.984-2.58V34.359C95.999,32.906,94.124,31.781,92.015,31.781z
		 M87.937,69.19H8.063V36.937h79.874V69.19z"/>
	<path d="M43.969,53.156v10.781c0,1.453,1.828,2.673,4.031,2.673c2.25,0,4.031-1.22,4.031-2.673V53.156
		c3.375-0.984,5.812-3,5.812-5.25c0-1.547-1.041-2.888-3.046-4.031c-2.026-1.154-4.266-1.735-6.75-1.735
		c-2.625,0-4.959,0.581-6.985,1.735c-2.005,1.143-3.046,2.484-3.046,4.031C38.016,50.109,40.594,52.172,43.969,53.156z"/>
</g>
<g>
</g>
<g>
</g>
<g>
</g>
<g>
</g>
<g>
</g>
<g>
</g>
<g>
</g>
<g>
</g>
<g>
</g>
<g>
</g>
<g>
</g>
<g>
</g>
<g>
</g>
<g>
</g>
<g>
</g>
</svg>
