<?xml version="1.0" encoding="iso-8859-1"?>
<!-- Generator: Adobe Illustrator 18.0.0, SVG Export Plug-In . SVG Version: 6.00 Build 0)  -->
<!DOCTYPE svg PUBLIC "-//W3C//DTD SVG 1.1//EN" "http://www.w3.org/Graphics/SVG/1.1/DTD/svg11.dtd">
<svg version="1.1" id="Capa_1" xmlns="http://www.w3.org/2000/svg" xmlns:xlink="http://www.w3.org/1999/xlink" x="0px" y="0px"
	 viewBox="0 0 95.375 78.8" style="enable-background:new 0 0 95.375 78.8;" xml:space="preserve">
<g>
	<path d="M57.735,23.3c-3.149-1.34-6.469-2.01-9.984-2.01h-0.094c-10.172,0-18.742,5.48-24.797,15.84
		c-2.523,4.32-4.406,8.95-5.578,13.87c-1.172,4.93-1.781,9.43-1.781,13.5c0,8.96,2.859,14.3,7.594,14.3h49.312
		c4.687,0,7.57-5.34,7.593-14.2c0.024-8.72-2.508-19.49-7.922-28.13C68.446,30.67,64.055,25.99,57.735,23.3z M74.703,64.6
		c-0.029,5.95-1.546,9.28-2.296,9H23.095c-0.844,0.23-2.438-2.96-2.438-9.1c0-3.65,0.546-7.73,1.641-12.18
		c1.108-4.51,2.841-8.71,5.109-12.61c1.95-3.36,4.195-6.12,7.5-8.82c3.351-2.73,7.828-4.4,12.75-4.4h0.094
		c4.921,0,9.412,1.7,12.749,4.45c3.366,2.78,5.597,5.52,7.594,8.91c2.316,3.92,3.979,8.15,5.063,12.65
		C74.229,56.96,74.721,60.99,74.703,64.6z"/>
	<path d="M47.751,38.11c-4.313,0-7.969,1.5-11.016,4.55s-4.547,6.7-4.547,10.97c0,4.26,1.5,7.97,4.547,11.01
		c3.047,3.05,6.703,4.55,11.016,4.55c4.265,0,7.921-1.5,10.968-4.55c3.047-3.04,4.594-6.75,4.594-11.01
		c0-4.27-1.547-7.88-4.594-10.92C55.672,39.66,52.016,38.11,47.751,38.11z M55.063,60.99c-2.004,2.02-4.453,3.04-7.312,3.04
		c-2.86,0-5.356-1.02-7.36-3.04c-2.027-2.05-3-4.5-3-7.36s0.985-5.3,3-7.31c2.016-2.02,4.5-3.05,7.36-3.05
		c2.859,0,5.296,1.03,7.312,3.05c2.016,2.01,3.047,4.45,3.047,7.31S57.09,58.94,55.063,60.99z"/>
	<path d="M91.016,12.52c-2.86-2.95-6.622-5.31-11.344-7.08C70.238,1.91,58.719,0,46.579,0C37.11,0,28.671,1.03,21.267,3.05
		C13.905,5.06,8.434,7.94,4.814,11.58c-3.224,3.25-4.773,6.85-4.688,10.88c0.008,0.37-0.084,1.36-0.093,1.73
		c-0.038,1.55-0.049,2.77,0,3.7c0.045,0.9,0.234,2.02,0.656,3.38s1.093,2.42,1.922,3.28c1.703,1.77,4.265,2.67,7.687,2.67
		c0.984,0,1.737-0.02,2.297-0.09c6.894-0.91,10.138-2.76,11.437-5.77c0.951-2.19,1.078-3.75,1.078-6.61v-1.07
		c0-0.38,0.188-0.75,0.563-1.13c1.359-1.36,4.083-2.41,8.156-3.28c4.083-0.87,8.672-1.31,13.734-1.31
		c4.453,0,8.484,0.33,12.094,0.93c3.609,0.61,6.319,1.38,8.109,2.25c1.772,0.87,2.719,1.69,2.719,2.54v0.79
		c0,2.96-0.012,4.55,0.937,6.8c0.458,1.08,1.124,2.02,2.016,2.72c1.733,1.36,4.921,2.63,9.562,3.14c4.359,0.48,7.654-0.36,9.75-2.49
		c1.701-1.72,2.516-4.87,2.578-6.79c0.032-0.99,0.047-2.2,0.047-3.75v-1.55C95.375,18.8,93.875,15.47,91.016,12.52z M90.172,24.19
		c0,3.61-0.224,5.87-1.125,6.8c-0.693,0.71-2.016,1.08-3.844,1.08c-0.703,0-1.264-0.06-1.64-0.1c-3.89-0.38-6.353-1.2-7.313-2.53
		c-0.494-0.68-0.562-2.29-0.562-4.87v-0.89c0-2.86-1.98-5.23-4.734-6.75c-2.683-1.48-6.941-2.61-10.36-3.14
		c-1.69-0.27-3.517-0.5-5.437-0.66c-1.924-0.17-3.469-0.28-4.547-0.33s-2.062-0.05-3.047-0.05c-1.734,0-3.514,0.07-5.344,0.19
		c-1.826,0.12-4.123,0.34-6.937,0.7c-5.576,0.72-10.756,2.56-13.359,5.25c-1.475,1.53-2.016,3.14-2.016,4.79v1.07
		c0,1.93-0.011,2.44-0.328,3.71c-0.152,0.6-0.334,1.07-0.656,1.36c-0.99,0.88-2.959,1.8-6.891,2.15c-2.959,0.26-4.823,0-5.671-0.98
		c-0.652-0.76-0.969-2.02-1.079-3.33c-0.031-0.38-0.046-1.31-0.046-1.64v-1.73c0-0.38,0.105-1.46,0.093-1.83
		c-0.082-2.63,0.938-5.02,3.141-7.22c3.14-3.14,8.115-5.56,14.906-7.36c6.802-1.81,14.531-2.72,23.203-2.72
		c12.234,0,22.446,1.66,30.656,4.92c3.227,1.29,5.944,2.64,8.578,4.69c2.663,2.07,4.359,4.83,4.359,7.78V24.19z"/>
</g>
<g>
</g>
<g>
</g>
<g>
</g>
<g>
</g>
<g>
</g>
<g>
</g>
<g>
</g>
<g>
</g>
<g>
</g>
<g>
</g>
<g>
</g>
<g>
</g>
<g>
</g>
<g>
</g>
<g>
</g>
</svg>
