<?xml version="1.0" encoding="iso-8859-1"?>
<!-- Generator: Adobe Illustrator 18.0.0, SVG Export Plug-In . SVG Version: 6.00 Build 0)  -->
<!DOCTYPE svg PUBLIC "-//W3C//DTD SVG 1.1//EN" "http://www.w3.org/Graphics/SVG/1.1/DTD/svg11.dtd">
<svg version="1.1" id="Capa_1" xmlns="http://www.w3.org/2000/svg" xmlns:xlink="http://www.w3.org/1999/xlink" x="0px" y="0px"
	 viewBox="0 0 95.905 85.686" style="enable-background:new 0 0 95.905 85.686;" xml:space="preserve">
<path d="M85.639,40.218c-0.421-7.359-2.625-14.156-6.515-20.296c-3.891-6.141-9.052-11.006-15.469-14.578
	C57.275,1.791,50.39,0,42.937,0C37.124,0,31.555,1.145,26.25,3.422c-5.289,2.27-9.903,5.285-13.735,9.093
	c-3.808,3.786-6.863,8.335-9.14,13.641C1.105,31.444,0,36.984,0,42.796c0,5.813,1.105,11.399,3.375,16.688
	c2.277,5.305,5.344,9.843,9.14,13.64c3.844,3.844,8.446,6.871,13.735,9.141c5.305,2.277,10.874,3.421,16.687,3.421
	c6.515,0,12.843-1.453,18.984-4.406l-2.203-4.781c-5.297,2.672-10.922,4.031-16.781,4.031c-6.797,0-13.131-1.677-18.937-5.062
	c-5.772-3.365-10.37-7.963-13.735-13.734C6.88,55.927,5.203,49.593,5.203,42.796s1.687-13.078,5.062-18.843
	C13.64,18.187,18.228,13.583,24,10.219c5.806-3.386,12.14-5.063,18.937-5.063c4.875,0,9.559,0.946,14.015,2.766
	c4.497,1.836,8.391,4.265,11.719,7.406c3.328,3.14,5.99,6.848,8.109,11.203c2.1,4.317,3.328,8.859,3.656,13.687H70.171
	l12.703,12.656l13.031-12.656H85.639z"/>
<g>
</g>
<g>
</g>
<g>
</g>
<g>
</g>
<g>
</g>
<g>
</g>
<g>
</g>
<g>
</g>
<g>
</g>
<g>
</g>
<g>
</g>
<g>
</g>
<g>
</g>
<g>
</g>
<g>
</g>
</svg>
