<?xml version="1.0" encoding="iso-8859-1"?>
<!-- Generator: Adobe Illustrator 18.0.0, SVG Export Plug-In . SVG Version: 6.00 Build 0)  -->
<!DOCTYPE svg PUBLIC "-//W3C//DTD SVG 1.1//EN" "http://www.w3.org/Graphics/SVG/1.1/DTD/svg11.dtd">
<svg version="1.1" id="Capa_1" xmlns="http://www.w3.org/2000/svg" xmlns:xlink="http://www.w3.org/1999/xlink" x="0px" y="0px"
	 viewBox="0 0 62.718 63.093" style="enable-background:new 0 0 62.718 63.093;" xml:space="preserve">
<g>
	<path d="M60.093,11.625H24.188c-1.454,0-2.579,1.172-2.579,2.625s1.125,2.578,2.579,2.578h35.905c1.453,0,2.625-1.125,2.625-2.578
		S61.546,11.625,60.093,11.625z"/>
	<path d="M60.093,34.781H24.188c-1.454,0-2.579,1.125-2.579,2.578s1.125,2.578,2.579,2.578h35.905c1.453,0,2.625-1.125,2.625-2.578
		S61.546,34.781,60.093,34.781z"/>
	<path d="M60.093,57.89H24.188c-1.454,0-2.579,1.172-2.579,2.625s1.125,2.578,2.579,2.578h35.905c1.453,0,2.625-1.125,2.625-2.578
		S61.546,57.89,60.093,57.89z"/>
	<path d="M2.625,5.203h57.468c1.453,0,2.625-1.125,2.625-2.578C62.718,1.266,61.546,0,60.093,0H2.625C1.172,0,0,1.266,0,2.625
		C0,4.078,1.172,5.203,2.625,5.203z"/>
	<path d="M60.093,23.156H2.625C1.172,23.156,0,24.281,0,25.734s1.172,2.625,2.625,2.625h57.468c1.453,0,2.625-1.172,2.625-2.625
		S61.546,23.156,60.093,23.156z"/>
	<path d="M60.093,46.312H2.625C1.172,46.312,0,47.437,0,48.89s1.172,2.578,2.625,2.578h57.468c1.453,0,2.625-1.125,2.625-2.578
		S61.546,46.312,60.093,46.312z"/>
</g>
<g>
</g>
<g>
</g>
<g>
</g>
<g>
</g>
<g>
</g>
<g>
</g>
<g>
</g>
<g>
</g>
<g>
</g>
<g>
</g>
<g>
</g>
<g>
</g>
<g>
</g>
<g>
</g>
<g>
</g>
</svg>
