<?xml version="1.0" encoding="iso-8859-1"?>
<!-- Generator: Adobe Illustrator 18.0.0, SVG Export Plug-In . SVG Version: 6.00 Build 0)  -->
<!DOCTYPE svg PUBLIC "-//W3C//DTD SVG 1.1//EN" "http://www.w3.org/Graphics/SVG/1.1/DTD/svg11.dtd">
<svg version="1.1" id="Capa_1" xmlns="http://www.w3.org/2000/svg" xmlns:xlink="http://www.w3.org/1999/xlink" x="0px" y="0px"
	 viewBox="0 0 70.265 95.108" style="enable-background:new 0 0 70.265 95.108;" xml:space="preserve">
<g>
	<path d="M65.999,10.922c-2.826-3.129-6.703-5.672-11.672-7.594S43.834,0,37.734,0h-2.719h-1.594h-0.141
		c-6.237,0-11.906,1.219-17.015,3.141s-9.094,4.453-11.953,7.64C1.453,13.969,0,17.437,0,21.234v52.687
		c0,6,3.868,11.395,10.828,15.375c6.728,3.848,14.765,5.812,24.093,5.812h0.188c9.609,0,17.713-1.932,24.328-5.718
		c6.979-3.995,10.828-9.516,10.828-15.469V21.234C70.265,17.531,68.846,14.074,65.999,10.922z M65.062,73.921
		c0,4.078-2.741,7.729-8.25,10.922c-5.976,3.463-13.219,5.109-21.703,5.109h-0.094c-8.391,0-15.59-1.64-21.562-5.109
		c-5.325-3.093-8.297-6.984-8.297-10.922V21.234c0-2.765,1.266-5.343,3.797-7.734s5.96-4.338,10.312-5.812
		c4.366-1.479,9.139-2.485,14.25-2.485h1.5h2.438c5.021,0,9.602,1.099,13.875,2.625c4.258,1.521,7.582,3.434,10.031,5.813
		c2.473,2.402,3.703,4.921,3.703,7.593V73.921z"/>
	<path d="M35.109,77.296c-2.437,0-4.406,1.969-4.406,4.406c0,2.438,1.969,4.406,4.406,4.406c2.391,0,4.453-2.015,4.453-4.406
		C39.562,79.312,37.5,77.296,35.109,77.296z"/>
	<path d="M50.109,13.453H20.156c-3.047,0-5.637,1.067-7.828,3.234c-2.168,2.145-3.234,4.735-3.234,7.782v38.296
		c0,3.047,1.067,5.684,3.234,7.828c2.191,2.168,4.781,3.234,7.828,3.234h29.953c3.047,0,5.625-1.078,7.734-3.234
		c2.109-2.156,3.188-4.781,3.188-7.828V24.469c0-3.047-1.078-5.625-3.188-7.782C55.734,14.531,53.156,13.453,50.109,13.453z
		 M55.874,62.765c0,1.641-0.551,3.011-1.688,4.172c-1.113,1.136-2.484,1.687-4.078,1.687H20.156c-1.594,0-2.965-0.55-4.125-1.687
		c-1.184-1.16-1.734-2.531-1.734-4.172V24.469c0-1.594,0.562-2.953,1.734-4.125c1.172-1.172,2.531-1.735,4.125-1.735h29.953
		c1.594,0,2.953,0.563,4.078,1.735s1.688,2.531,1.688,4.125V62.765z"/>
</g>
<g>
</g>
<g>
</g>
<g>
</g>
<g>
</g>
<g>
</g>
<g>
</g>
<g>
</g>
<g>
</g>
<g>
</g>
<g>
</g>
<g>
</g>
<g>
</g>
<g>
</g>
<g>
</g>
<g>
</g>
</svg>
