<?xml version="1.0" encoding="iso-8859-1"?>
<!-- Generator: Adobe Illustrator 18.0.0, SVG Export Plug-In . SVG Version: 6.00 Build 0)  -->
<!DOCTYPE svg PUBLIC "-//W3C//DTD SVG 1.1//EN" "http://www.w3.org/Graphics/SVG/1.1/DTD/svg11.dtd">
<svg version="1.1" id="Capa_1" xmlns="http://www.w3.org/2000/svg" xmlns:xlink="http://www.w3.org/1999/xlink" x="0px" y="0px"
	 viewBox="0 0 77.108 77.671" style="enable-background:new 0 0 77.108 77.671;" xml:space="preserve">
<g>
	<path d="M75.467,1.688C74.377,0.574,73.03,0,71.436,0H5.671C4.078,0,2.73,0.574,1.64,1.688C0.574,2.777,0,4.125,0,5.672v56.53
		c0,1.547,0.55,2.918,1.64,4.032c1.067,1.089,2.438,1.64,4.031,1.64H43.03l17.578,9.797v-9.797h10.828
		c1.594,0,2.965-0.551,4.031-1.64c1.09-1.114,1.641-2.485,1.641-4.032V24.797V5.672C77.108,4.125,76.534,2.777,75.467,1.688z
		 M71.905,19.125v5.672v37.405c0,0.329-0.141,0.516-0.469,0.516H60.608h-5.203v5.156v0.985l-1.734-0.985l-8.156-4.593l-1.172-0.563
		H13.734H5.671c-0.328,0-0.468-0.187-0.468-0.516V5.672c0-0.328,0.14-0.469,0.468-0.469h65.765c0.328,0,0.469,0.141,0.469,0.469
		V19.125z"/>
	<rect x="50.296" y="31.5" width="7.218" height="7.218"/>
	<rect x="34.968" y="31.5" width="7.172" height="7.218"/>
	<rect x="19.593" y="31.5" width="7.219" height="7.218"/>
</g>
<g>
</g>
<g>
</g>
<g>
</g>
<g>
</g>
<g>
</g>
<g>
</g>
<g>
</g>
<g>
</g>
<g>
</g>
<g>
</g>
<g>
</g>
<g>
</g>
<g>
</g>
<g>
</g>
<g>
</g>
</svg>
