<?xml version="1.0" encoding="iso-8859-1"?>
<!-- Generator: Adobe Illustrator 18.0.0, SVG Export Plug-In . SVG Version: 6.00 Build 0)  -->
<!DOCTYPE svg PUBLIC "-//W3C//DTD SVG 1.1//EN" "http://www.w3.org/Graphics/SVG/1.1/DTD/svg11.dtd">
<svg version="1.1" id="Capa_1" xmlns="http://www.w3.org/2000/svg" xmlns:xlink="http://www.w3.org/1999/xlink" x="0px" y="0px"
	 viewBox="0 0 77.062 73.64" style="enable-background:new 0 0 77.062 73.64;" xml:space="preserve">
<g>
	<path d="M75.421,7.453c-1.09-1.113-2.437-1.687-4.031-1.687H54.703V2.578C54.703,1.125,53.578,0,52.125,0s-2.578,1.125-2.578,2.578
		v3.188H27.563V2.578C27.563,1.125,26.391,0,24.938,0c-1.454,0-2.579,1.125-2.579,2.578v3.188H5.672
		c-1.547,0-2.918,0.551-4.031,1.687C0.551,8.567,0,9.891,0,11.438v56.53c0,1.547,0.551,2.871,1.641,3.985
		c1.113,1.136,2.484,1.687,4.031,1.687H71.39c1.594,0,2.965-0.551,4.031-1.641c1.09-1.113,1.641-2.484,1.641-4.031v-56.53
		C77.062,9.891,76.488,8.543,75.421,7.453z M71.906,67.968c0,0.188-0.282,0.469-0.516,0.469H5.672c-0.234,0-0.515-0.281-0.515-0.469
		V29.859h66.749V67.968z M71.906,24.703H5.157V11.438c0-0.328,0.187-0.469,0.515-0.469h16.687v1.125
		c0,1.453,1.125,2.625,2.579,2.625c1.453,0,2.625-1.172,2.625-2.625v-1.125h21.984v1.125c0,1.453,1.125,2.625,2.578,2.625
		s2.578-1.172,2.578-2.625v-1.125H71.39c0.328,0,0.516,0.141,0.516,0.469V24.703z"/>
	<path d="M27.656,45.234h31.078c1.453,0,2.578-1.172,2.578-2.625s-1.125-2.578-2.578-2.578H27.656c-1.453,0-2.625,1.125-2.625,2.578
		S26.203,45.234,27.656,45.234z"/>
	<path d="M27.656,57.703h31.078c1.453,0,2.578-1.125,2.578-2.578S60.187,52.5,58.734,52.5H27.656c-1.453,0-2.625,1.172-2.625,2.625
		S26.203,57.703,27.656,57.703z"/>
	<rect x="15.75" y="40.031" width="5.156" height="5.203"/>
	<rect x="15.75" y="52.5" width="5.156" height="5.203"/>
</g>
<g>
</g>
<g>
</g>
<g>
</g>
<g>
</g>
<g>
</g>
<g>
</g>
<g>
</g>
<g>
</g>
<g>
</g>
<g>
</g>
<g>
</g>
<g>
</g>
<g>
</g>
<g>
</g>
<g>
</g>
</svg>
