<?xml version="1.0" encoding="iso-8859-1"?>
<!-- Generator: Adobe Illustrator 18.0.0, SVG Export Plug-In . SVG Version: 6.00 Build 0)  -->
<!DOCTYPE svg PUBLIC "-//W3C//DTD SVG 1.1//EN" "http://www.w3.org/Graphics/SVG/1.1/DTD/svg11.dtd">
<svg version="1.1" id="Capa_1" xmlns="http://www.w3.org/2000/svg" xmlns:xlink="http://www.w3.org/1999/xlink" x="0px" y="0px"
	 viewBox="0 0 62.015 74.39" style="enable-background:new 0 0 62.015 74.39;" xml:space="preserve">
<g>
	<path d="M59.437,31.78h-9.328V19.59c0-5.67-1.782-10.36-5.391-14.06C41.109,1.83,36.562,0,31.031,0
		C25.453,0,20.859,1.83,17.25,5.53c-3.61,3.7-5.438,8.39-5.438,14.06v2.96c0,1.45,1.219,2.58,2.578,2.58
		c1.453,0,2.625-1.13,2.625-2.58v-2.96c0-4.21,1.312-7.68,3.891-10.36c2.624-2.71,6-4.07,10.125-4.07c4.078,0,7.394,1.37,9.984,4.07
		c2.566,2.69,3.891,6.15,3.891,10.36v12.19H2.578C1.125,31.78,0,32.91,0,34.36v37.45c0,1.46,1.125,2.58,2.578,2.58h56.859
		c1.359,0,2.578-1.12,2.578-2.58V34.36C62.015,32.91,60.796,31.78,59.437,31.78z M56.812,69.19H5.203V36.94h51.609V69.19z"/>
	<path d="M28.406,53.16v10.78c0,1.45,1.172,2.67,2.625,2.67s2.578-1.22,2.578-2.67V53.16c2.203-0.99,3.75-3,3.75-5.25
		c0-1.55-0.678-2.89-1.969-4.04c-1.288-1.14-2.719-1.73-4.359-1.73c-1.688,0-3.176,0.58-4.5,1.73c-1.301,1.14-1.969,2.49-1.969,4.04
		C24.562,50.11,26.203,52.17,28.406,53.16z"/>
</g>
<g>
</g>
<g>
</g>
<g>
</g>
<g>
</g>
<g>
</g>
<g>
</g>
<g>
</g>
<g>
</g>
<g>
</g>
<g>
</g>
<g>
</g>
<g>
</g>
<g>
</g>
<g>
</g>
<g>
</g>
</svg>
