<?xml version="1.0" encoding="iso-8859-1"?>
<!-- Generator: Adobe Illustrator 18.0.0, SVG Export Plug-In . SVG Version: 6.00 Build 0)  -->
<!DOCTYPE svg PUBLIC "-//W3C//DTD SVG 1.1//EN" "http://www.w3.org/Graphics/SVG/1.1/DTD/svg11.dtd">
<svg version="1.1" id="Capa_1" xmlns="http://www.w3.org/2000/svg" xmlns:xlink="http://www.w3.org/1999/xlink" x="0px" y="0px"
	 viewBox="0 0 47.999 74.39" style="enable-background:new 0 0 47.999 74.39;" xml:space="preserve">
<g>
	<path d="M45.983,31.781h-7.218V19.594c0-5.672-1.406-10.359-4.172-14.062C31.827,1.828,28.265,0,23.999,0
		c-4.265,0-7.828,1.828-10.64,5.532c-2.813,3.703-4.219,8.39-4.219,14.062v2.953c0,1.453,0.938,2.578,2.016,2.578
		s2.015-1.125,2.015-2.578v-2.953c0-4.219,0.996-7.679,3-10.359c2.027-2.711,4.641-4.078,7.828-4.078
		c3.141,0,5.708,1.367,7.735,4.078c2.004,2.68,3,6.14,3,10.359v12.187H2.015C0.89,31.781,0,32.906,0,34.359V71.81
		c0,1.46,0.89,2.58,2.015,2.58h43.968c1.079,0,2.016-1.12,2.016-2.58V34.359C47.999,32.906,47.062,31.781,45.983,31.781z
		 M43.968,69.19H4.031V36.937h39.937V69.19z"/>
	<path d="M21.984,53.156v10.781c0,1.453,0.937,2.673,2.015,2.673c1.125,0,2.016-1.22,2.016-2.673V53.156
		c1.687-0.984,2.906-3,2.906-5.25c0-1.547-0.527-2.896-1.5-4.031c-0.996-1.162-2.156-1.735-3.422-1.735
		c-1.265,0-2.439,0.562-3.468,1.735c-0.986,1.123-1.5,2.484-1.5,4.031C19.031,50.109,20.296,52.172,21.984,53.156z"/>
</g>
<g>
</g>
<g>
</g>
<g>
</g>
<g>
</g>
<g>
</g>
<g>
</g>
<g>
</g>
<g>
</g>
<g>
</g>
<g>
</g>
<g>
</g>
<g>
</g>
<g>
</g>
<g>
</g>
<g>
</g>
</svg>
