<?xml version="1.0" encoding="iso-8859-1"?>
<!-- Generator: Adobe Illustrator 18.0.0, SVG Export Plug-In . SVG Version: 6.00 Build 0)  -->
<!DOCTYPE svg PUBLIC "-//W3C//DTD SVG 1.1//EN" "http://www.w3.org/Graphics/SVG/1.1/DTD/svg11.dtd">
<svg version="1.1" id="Capa_1" xmlns="http://www.w3.org/2000/svg" xmlns:xlink="http://www.w3.org/1999/xlink" x="0px" y="0px"
	 viewBox="0 0 95.437 87.503" style="enable-background:new 0 0 95.437 87.503;" xml:space="preserve">
<g>
	<path d="M72.093,51.52c0.43-1.12,0.189-2.02-0.562-2.77L53.672,30.89c-0.985-0.98-2.675-0.98-3.657,0L32.25,48.75
		c-0.514,0.52-0.75,1.13-0.75,1.83c0,0.23,0.047,0.56,0.187,0.94c0.516,1.08,1.313,1.64,2.391,1.64h8.859v1.73
		c0,3-0.304,6.05-0.843,9.1c-0.539,3.04-1.193,5.66-1.922,7.87c-0.724,2.2-1.493,4.22-2.297,6.05c-1.633,3.7-2.625,5.29-2.813,5.48
		c-0.562,1.08-0.481,2.5,0.282,3.28c0.924,0.95,1.959,1.06,3.14,0.47l0.094-0.04c0.797-0.52,1.762-1.06,4.266-3.1
		c2.559-2.08,4.79-4.25,7.781-8.11c2.962-3.82,5.34-7.78,7.453-13.59c1.074-2.96,1.922-6,2.484-9.14h9.141
		C70.874,53.16,71.679,52.6,72.093,51.52z M58.359,48c-1.359,0-2.406,0.94-2.578,2.21c-1.281,9.41-5.016,17.71-11.156,24.84
		c2.297-6.8,3.469-13.55,3.469-20.16c0-2.01-0.047-3.56-0.188-4.59c-0.047-1.36-1.125-2.3-2.484-2.3h-5.11l11.531-11.62L63.468,48
		H58.359z"/>
	<path d="M92.53,31.36c-1.921-3.51-4.499-6.33-7.781-8.44c-0.797-5.85-3.199-10.91-7.171-15.14C72.878,2.78,66.515,0,59.906,0
		c-5.297,0-10.067,1.61-14.391,4.83c-4.301,3.2-7.359,7.36-9.14,12.52c-0.516-0.14-1.266-0.19-2.297-0.19
		c-3.656,0-6.935,1.13-9.844,3.42c-2.856,2.25-4.828,5.16-5.906,8.77h-1.031c-4.734,0-8.813,1.78-12.234,5.39
		C1.687,38.3,0,42.61,0,47.63c0,4.45,1.394,8.36,4.125,11.76c2.8,3.49,6.279,5.6,10.547,6.28c0.982,0.16,1.781,0.19,2.344,0.19
		h17.062v-5.2H17.016c-0.328,0-0.836-0.09-1.453-0.19c-2.947-0.46-5.405-1.86-7.406-4.31c-1.983-2.43-2.954-5.3-2.954-8.53
		c0-3.61,1.171-6.71,3.516-9.24c2.39-2.58,5.25-3.84,8.578-3.84c2.016,0,3.891,0.47,5.672,1.45c-0.094-0.47-0.141-0.94-0.141-1.45
		c0-3.33,1.078-6.19,3.281-8.58c2.204-2.39,4.829-3.61,7.969-3.61c2.156,0,4.125,0.61,5.953,1.83c0.61-5.39,2.801-9.9,6.563-13.5
		c3.785-3.62,8.203-5.44,13.312-5.44c5.39,0,10.031,2.07,13.922,6.14c3.89,4.08,5.859,9,5.953,14.82
		c3.14,1.31,5.625,3.46,7.546,6.46c1.922,3,2.907,6.38,2.907,10.13c0,4.55-1.313,8.48-3.985,11.81c-2.672,3.33-6,5.25-10.031,5.86
		c-0.375,0.14-1.078,0.19-2.109,0.19h-8.438v5.2h8.438c1.172,0,2.203-0.09,3.094-0.33c5.203-0.75,9.603-3.33,13.124-7.73
		c3.416-4.27,5.11-9.28,5.11-15C95.437,38.67,94.452,34.88,92.53,31.36z"/>
</g>
<g>
</g>
<g>
</g>
<g>
</g>
<g>
</g>
<g>
</g>
<g>
</g>
<g>
</g>
<g>
</g>
<g>
</g>
<g>
</g>
<g>
</g>
<g>
</g>
<g>
</g>
<g>
</g>
<g>
</g>
</svg>
