<?xml version="1.0" encoding="iso-8859-1"?>
<!-- Generator: Adobe Illustrator 18.0.0, SVG Export Plug-In . SVG Version: 6.00 Build 0)  -->
<!DOCTYPE svg PUBLIC "-//W3C//DTD SVG 1.1//EN" "http://www.w3.org/Graphics/SVG/1.1/DTD/svg11.dtd">
<svg version="1.1" id="Capa_1" xmlns="http://www.w3.org/2000/svg" xmlns:xlink="http://www.w3.org/1999/xlink" x="0px" y="0px"
	 viewBox="0 0 53.483 67.448" style="enable-background:new 0 0 53.483 67.448;" xml:space="preserve">
<path d="M52.03,0.228c-1.031-0.42-1.94-0.25-2.765,0.42l-21.516,17.44H2.625c-1.454,0-2.625,1.17-2.625,2.63v26.01
	c0,1.45,1.171,2.58,2.625,2.58h25.124l21.516,17.58c0.464,0.38,1.031,0.56,1.64,0.56c0.375,0,0.743-0.11,1.125-0.28
	c0.977-0.44,1.453-1.22,1.453-2.3v-62.2C53.483,1.588,53.014,0.749,52.03,0.228z M48.28,59.388l-17.953-14.67
	c-0.516-0.43-1.031-0.61-1.593-0.61H5.203v-20.82h23.531c0.609,0,1.129-0.18,1.593-0.56L48.28,8.009V59.388z"/>
<g>
</g>
<g>
</g>
<g>
</g>
<g>
</g>
<g>
</g>
<g>
</g>
<g>
</g>
<g>
</g>
<g>
</g>
<g>
</g>
<g>
</g>
<g>
</g>
<g>
</g>
<g>
</g>
<g>
</g>
</svg>
