<?xml version="1.0" encoding="iso-8859-1"?>
<!-- Generator: Adobe Illustrator 18.0.0, SVG Export Plug-In . SVG Version: 6.00 Build 0)  -->
<!DOCTYPE svg PUBLIC "-//W3C//DTD SVG 1.1//EN" "http://www.w3.org/Graphics/SVG/1.1/DTD/svg11.dtd">
<svg version="1.1" id="Capa_1" xmlns="http://www.w3.org/2000/svg" xmlns:xlink="http://www.w3.org/1999/xlink" x="0px" y="0px"
	 viewBox="0 0 95.507 67.033" style="enable-background:new 0 0 95.507 67.033;" xml:space="preserve">
<g>
	<path d="M39.208,51.187c-1.069,1.74-1.641,3.656-1.641,5.672c0,2.109,0.604,4.004,1.641,5.671c3.744,6.021,13.265,5.988,17.062,0
		c1.08-1.702,1.734-3.515,1.734-5.671c0-2.063-0.623-3.899-1.734-5.672C52.505,45.178,42.92,45.145,39.208,51.187z M51.957,59.624
		c-1.003,1.535-2.39,2.297-4.218,2.297s-3.258-0.735-4.219-2.297c-0.539-0.876-0.75-1.828-0.75-2.765
		c0-0.985,0.208-1.938,0.75-2.813c0.911-1.47,2.344-2.203,4.219-2.203s3.266,0.76,4.218,2.203c0.595,0.901,0.891,1.828,0.891,2.813
		C52.848,57.796,52.548,58.721,51.957,59.624z"/>
	<path d="M60.348,33.234c-3.896-2.1-8.109-3.188-12.609-3.188c-4.453,0-8.677,1.069-12.656,3.188
		c-3.943,2.099-7.172,5.032-9.61,8.812c-0.797,1.237-0.505,2.844,0.75,3.656c0.339,0.219,0.844,0.375,1.454,0.375
		c0.937,0,1.625-0.385,2.109-1.125c2-3.057,4.588-5.4,7.734-7.078c3.182-1.697,6.609-2.531,10.219-2.531
		c7.312,0,13.817,3.602,17.953,9.609c0.834,1.213,2.39,1.5,3.656,0.75c1.172-0.89,1.475-2.404,0.656-3.656
		C67.541,38.282,64.28,35.353,60.348,33.234z"/>
	<path d="M67.66,19.687c-6.192-3.318-12.843-4.969-19.921-4.969s-13.693,1.631-19.922,4.969
		c-6.193,3.319-11.304,7.886-15.187,13.828c-0.805,1.231-0.506,2.844,0.75,3.656c0.338,0.219,0.844,0.375,1.453,0.375
		c0.937,0,1.625-0.384,2.109-1.125c3.407-5.213,7.88-9.226,13.313-12.14c5.489-2.945,11.296-4.406,17.484-4.406
		c6.187,0,11.99,1.471,17.484,4.406c5.475,2.924,9.957,6.924,13.359,12.14c0.817,1.253,2.344,1.5,3.609,0.75
		c1.172-0.89,1.527-2.408,0.704-3.656C78.984,27.591,73.889,23.025,67.66,19.687z"/>
	<path d="M95.082,25.453C89.803,17.472,82.983,11.26,74.598,6.75C66.249,2.26,57.301,0,47.739,0c-9.516,0-18.422,2.25-26.812,6.75
		c-8.391,4.5-15.252,10.722-20.531,18.703c-0.768,1.16-0.375,2.812,0.796,3.562c0.375,0.328,0.844,0.469,1.454,0.469
		c0.937,0,1.621-0.387,2.109-1.125c4.809-7.278,11.062-12.937,18.656-17.016c7.594-4.078,15.703-6.14,24.328-6.14
		c8.672,0,16.775,2.072,24.374,6.14c7.636,4.088,13.845,9.739,18.656,17.016c0.768,1.161,2.347,1.457,3.61,0.656
		C95.554,28.27,95.85,26.613,95.082,25.453z"/>
</g>
<g>
</g>
<g>
</g>
<g>
</g>
<g>
</g>
<g>
</g>
<g>
</g>
<g>
</g>
<g>
</g>
<g>
</g>
<g>
</g>
<g>
</g>
<g>
</g>
<g>
</g>
<g>
</g>
<g>
</g>
</svg>
